<mxfile host="Electron" agent="Mozilla/5.0 (Windows NT 10.0; Win64; x64) AppleWebKit/537.36 (KHTML, like Gecko) draw.io/26.0.16 Chrome/132.0.6834.196 Electron/34.2.0 Safari/537.36" version="26.0.16" pages="3">
  <diagram name="Login" id="0bw2_ZNaty8h8VRr6iE-">
    <mxGraphModel dx="1613" dy="776" grid="1" gridSize="10" guides="1" tooltips="1" connect="1" arrows="1" fold="1" page="1" pageScale="1" pageWidth="850" pageHeight="1100" math="0" shadow="0">
      <root>
        <mxCell id="0" />
        <mxCell id="1" parent="0" />
        <mxCell id="GqS4ADtck2LcJtlNPGtB-3" value="" style="edgeStyle=orthogonalEdgeStyle;rounded=0;orthogonalLoop=1;jettySize=auto;html=1;" edge="1" parent="1" source="GqS4ADtck2LcJtlNPGtB-1" target="GqS4ADtck2LcJtlNPGtB-2">
          <mxGeometry relative="1" as="geometry" />
        </mxCell>
        <mxCell id="GqS4ADtck2LcJtlNPGtB-1" value="Start" style="ellipse;whiteSpace=wrap;html=1;" vertex="1" parent="1">
          <mxGeometry x="360" y="280" width="120" height="80" as="geometry" />
        </mxCell>
        <mxCell id="GqS4ADtck2LcJtlNPGtB-6" value="" style="edgeStyle=orthogonalEdgeStyle;rounded=0;orthogonalLoop=1;jettySize=auto;html=1;" edge="1" parent="1" source="GqS4ADtck2LcJtlNPGtB-2" target="GqS4ADtck2LcJtlNPGtB-5">
          <mxGeometry relative="1" as="geometry" />
        </mxCell>
        <mxCell id="GqS4ADtck2LcJtlNPGtB-2" value="1.Login&lt;div&gt;2.Register&lt;br&gt;3.Keluar program&lt;/div&gt;" style="shape=parallelogram;perimeter=parallelogramPerimeter;whiteSpace=wrap;html=1;fixedSize=1;" vertex="1" parent="1">
          <mxGeometry x="360" y="450" width="120" height="60" as="geometry" />
        </mxCell>
        <mxCell id="GqS4ADtck2LcJtlNPGtB-4" value="" style="endArrow=classic;html=1;rounded=0;exitX=0.563;exitY=1.047;exitDx=0;exitDy=0;exitPerimeter=0;" edge="1" parent="1">
          <mxGeometry width="50" height="50" relative="1" as="geometry">
            <mxPoint x="439.99999999999994" y="509.99999999999994" as="sourcePoint" />
            <mxPoint x="492.44" y="510.18" as="targetPoint" />
          </mxGeometry>
        </mxCell>
        <mxCell id="GqS4ADtck2LcJtlNPGtB-9" value="" style="edgeStyle=orthogonalEdgeStyle;rounded=0;orthogonalLoop=1;jettySize=auto;html=1;" edge="1" parent="1" source="GqS4ADtck2LcJtlNPGtB-5" target="GqS4ADtck2LcJtlNPGtB-8">
          <mxGeometry relative="1" as="geometry" />
        </mxCell>
        <mxCell id="GqS4ADtck2LcJtlNPGtB-5" value="Pilih" style="shape=parallelogram;perimeter=parallelogramPerimeter;whiteSpace=wrap;html=1;fixedSize=1;" vertex="1" parent="1">
          <mxGeometry x="360" y="590" width="120" height="60" as="geometry" />
        </mxCell>
        <mxCell id="GqS4ADtck2LcJtlNPGtB-7" value="" style="endArrow=classic;html=1;rounded=0;exitX=0.563;exitY=1.047;exitDx=0;exitDy=0;exitPerimeter=0;" edge="1" parent="1">
          <mxGeometry width="50" height="50" relative="1" as="geometry">
            <mxPoint x="350" y="590" as="sourcePoint" />
            <mxPoint x="402.44000000000005" y="590.1800000000001" as="targetPoint" />
          </mxGeometry>
        </mxCell>
        <mxCell id="GqS4ADtck2LcJtlNPGtB-13" value="yes" style="edgeStyle=orthogonalEdgeStyle;rounded=0;orthogonalLoop=1;jettySize=auto;html=1;" edge="1" parent="1" source="GqS4ADtck2LcJtlNPGtB-8" target="GqS4ADtck2LcJtlNPGtB-12">
          <mxGeometry relative="1" as="geometry" />
        </mxCell>
        <mxCell id="GqS4ADtck2LcJtlNPGtB-19" value="no" style="edgeStyle=orthogonalEdgeStyle;rounded=0;orthogonalLoop=1;jettySize=auto;html=1;" edge="1" parent="1" source="GqS4ADtck2LcJtlNPGtB-8" target="GqS4ADtck2LcJtlNPGtB-18">
          <mxGeometry relative="1" as="geometry" />
        </mxCell>
        <mxCell id="GqS4ADtck2LcJtlNPGtB-8" value="Pilih = 1?" style="rhombus;whiteSpace=wrap;html=1;" vertex="1" parent="1">
          <mxGeometry x="380" y="720" width="80" height="80" as="geometry" />
        </mxCell>
        <mxCell id="GqS4ADtck2LcJtlNPGtB-16" value="" style="edgeStyle=orthogonalEdgeStyle;rounded=0;orthogonalLoop=1;jettySize=auto;html=1;" edge="1" parent="1" source="GqS4ADtck2LcJtlNPGtB-12" target="GqS4ADtck2LcJtlNPGtB-15">
          <mxGeometry relative="1" as="geometry" />
        </mxCell>
        <mxCell id="GqS4ADtck2LcJtlNPGtB-12" value="Masukkan &lt;br&gt;username" style="shape=parallelogram;perimeter=parallelogramPerimeter;whiteSpace=wrap;html=1;fixedSize=1;" vertex="1" parent="1">
          <mxGeometry x="520" y="730" width="120" height="60" as="geometry" />
        </mxCell>
        <mxCell id="GqS4ADtck2LcJtlNPGtB-14" value="" style="endArrow=classic;html=1;rounded=0;exitX=0.563;exitY=1.047;exitDx=0;exitDy=0;exitPerimeter=0;" edge="1" parent="1">
          <mxGeometry width="50" height="50" relative="1" as="geometry">
            <mxPoint x="510" y="730" as="sourcePoint" />
            <mxPoint x="562.44" y="730.1800000000001" as="targetPoint" />
          </mxGeometry>
        </mxCell>
        <mxCell id="GqS4ADtck2LcJtlNPGtB-31" value="" style="edgeStyle=orthogonalEdgeStyle;rounded=0;orthogonalLoop=1;jettySize=auto;html=1;" edge="1" parent="1" source="GqS4ADtck2LcJtlNPGtB-15" target="GqS4ADtck2LcJtlNPGtB-30">
          <mxGeometry relative="1" as="geometry" />
        </mxCell>
        <mxCell id="GqS4ADtck2LcJtlNPGtB-15" value="Masukkan &lt;br&gt;password" style="shape=parallelogram;perimeter=parallelogramPerimeter;whiteSpace=wrap;html=1;fixedSize=1;" vertex="1" parent="1">
          <mxGeometry x="720" y="730" width="120" height="60" as="geometry" />
        </mxCell>
        <mxCell id="GqS4ADtck2LcJtlNPGtB-17" value="" style="endArrow=classic;html=1;rounded=0;exitX=0.563;exitY=1.047;exitDx=0;exitDy=0;exitPerimeter=0;" edge="1" parent="1">
          <mxGeometry width="50" height="50" relative="1" as="geometry">
            <mxPoint x="710" y="730" as="sourcePoint" />
            <mxPoint x="762.44" y="730.1800000000001" as="targetPoint" />
          </mxGeometry>
        </mxCell>
        <mxCell id="GqS4ADtck2LcJtlNPGtB-21" value="yes" style="edgeStyle=orthogonalEdgeStyle;rounded=0;orthogonalLoop=1;jettySize=auto;html=1;" edge="1" parent="1" source="GqS4ADtck2LcJtlNPGtB-18" target="GqS4ADtck2LcJtlNPGtB-20">
          <mxGeometry relative="1" as="geometry" />
        </mxCell>
        <mxCell id="fyAF0N4ZfVZI4PPGpyn3-3" value="no" style="edgeStyle=orthogonalEdgeStyle;rounded=0;orthogonalLoop=1;jettySize=auto;html=1;" edge="1" parent="1" source="GqS4ADtck2LcJtlNPGtB-18" target="fyAF0N4ZfVZI4PPGpyn3-2">
          <mxGeometry relative="1" as="geometry" />
        </mxCell>
        <mxCell id="GqS4ADtck2LcJtlNPGtB-18" value="Pilih = 2?" style="rhombus;whiteSpace=wrap;html=1;" vertex="1" parent="1">
          <mxGeometry x="380" y="880" width="80" height="80" as="geometry" />
        </mxCell>
        <mxCell id="GqS4ADtck2LcJtlNPGtB-23" value="" style="edgeStyle=orthogonalEdgeStyle;rounded=0;orthogonalLoop=1;jettySize=auto;html=1;" edge="1" parent="1" source="GqS4ADtck2LcJtlNPGtB-20" target="GqS4ADtck2LcJtlNPGtB-22">
          <mxGeometry relative="1" as="geometry" />
        </mxCell>
        <mxCell id="GqS4ADtck2LcJtlNPGtB-20" value="Masukkan&lt;br&gt;username" style="shape=parallelogram;perimeter=parallelogramPerimeter;whiteSpace=wrap;html=1;fixedSize=1;" vertex="1" parent="1">
          <mxGeometry x="520" y="890" width="120" height="60" as="geometry" />
        </mxCell>
        <mxCell id="GqS4ADtck2LcJtlNPGtB-27" value="" style="edgeStyle=orthogonalEdgeStyle;rounded=0;orthogonalLoop=1;jettySize=auto;html=1;" edge="1" parent="1" source="GqS4ADtck2LcJtlNPGtB-22" target="GqS4ADtck2LcJtlNPGtB-26">
          <mxGeometry relative="1" as="geometry" />
        </mxCell>
        <mxCell id="GqS4ADtck2LcJtlNPGtB-22" value="Masukkan&lt;br&gt;password" style="shape=parallelogram;perimeter=parallelogramPerimeter;whiteSpace=wrap;html=1;fixedSize=1;" vertex="1" parent="1">
          <mxGeometry x="720" y="890" width="120" height="60" as="geometry" />
        </mxCell>
        <mxCell id="GqS4ADtck2LcJtlNPGtB-24" value="" style="endArrow=classic;html=1;rounded=0;exitX=0.563;exitY=1.047;exitDx=0;exitDy=0;exitPerimeter=0;" edge="1" parent="1">
          <mxGeometry width="50" height="50" relative="1" as="geometry">
            <mxPoint x="509.99999999999994" y="889" as="sourcePoint" />
            <mxPoint x="562.44" y="889.1800000000001" as="targetPoint" />
          </mxGeometry>
        </mxCell>
        <mxCell id="GqS4ADtck2LcJtlNPGtB-25" value="" style="endArrow=classic;html=1;rounded=0;exitX=0.563;exitY=1.047;exitDx=0;exitDy=0;exitPerimeter=0;" edge="1" parent="1">
          <mxGeometry width="50" height="50" relative="1" as="geometry">
            <mxPoint x="710" y="890" as="sourcePoint" />
            <mxPoint x="762.44" y="890.1800000000001" as="targetPoint" />
          </mxGeometry>
        </mxCell>
        <mxCell id="GqS4ADtck2LcJtlNPGtB-35" style="edgeStyle=orthogonalEdgeStyle;rounded=0;orthogonalLoop=1;jettySize=auto;html=1;entryX=0;entryY=0.5;entryDx=0;entryDy=0;" edge="1" parent="1" source="GqS4ADtck2LcJtlNPGtB-26" target="GqS4ADtck2LcJtlNPGtB-2">
          <mxGeometry relative="1" as="geometry">
            <Array as="points">
              <mxPoint x="780" y="1380" />
              <mxPoint x="310" y="1380" />
              <mxPoint x="310" y="480" />
            </Array>
          </mxGeometry>
        </mxCell>
        <mxCell id="GqS4ADtck2LcJtlNPGtB-26" value="Simpan akun" style="whiteSpace=wrap;html=1;" vertex="1" parent="1">
          <mxGeometry x="720" y="1050" width="120" height="60" as="geometry" />
        </mxCell>
        <mxCell id="fyAF0N4ZfVZI4PPGpyn3-7" style="edgeStyle=orthogonalEdgeStyle;rounded=0;orthogonalLoop=1;jettySize=auto;html=1;entryX=0;entryY=0.5;entryDx=0;entryDy=0;" edge="1" parent="1" source="GqS4ADtck2LcJtlNPGtB-28" target="GqS4ADtck2LcJtlNPGtB-2">
          <mxGeometry relative="1" as="geometry">
            <Array as="points">
              <mxPoint x="420" y="1380" />
              <mxPoint x="310" y="1380" />
              <mxPoint x="310" y="480" />
            </Array>
          </mxGeometry>
        </mxCell>
        <mxCell id="GqS4ADtck2LcJtlNPGtB-28" value="Pilihan tidak valid" style="shape=parallelogram;perimeter=parallelogramPerimeter;whiteSpace=wrap;html=1;fixedSize=1;" vertex="1" parent="1">
          <mxGeometry x="360" y="1200" width="120" height="60" as="geometry" />
        </mxCell>
        <mxCell id="GqS4ADtck2LcJtlNPGtB-38" value="no" style="edgeStyle=orthogonalEdgeStyle;rounded=0;orthogonalLoop=1;jettySize=auto;html=1;" edge="1" parent="1" source="GqS4ADtck2LcJtlNPGtB-30" target="GqS4ADtck2LcJtlNPGtB-37">
          <mxGeometry relative="1" as="geometry" />
        </mxCell>
        <mxCell id="GqS4ADtck2LcJtlNPGtB-41" value="yes" style="edgeStyle=orthogonalEdgeStyle;rounded=0;orthogonalLoop=1;jettySize=auto;html=1;" edge="1" parent="1" source="GqS4ADtck2LcJtlNPGtB-30" target="GqS4ADtck2LcJtlNPGtB-40">
          <mxGeometry relative="1" as="geometry" />
        </mxCell>
        <mxCell id="GqS4ADtck2LcJtlNPGtB-30" value="akun tervalidasi?" style="rhombus;whiteSpace=wrap;html=1;" vertex="1" parent="1">
          <mxGeometry x="940" y="720" width="80" height="80" as="geometry" />
        </mxCell>
        <mxCell id="GqS4ADtck2LcJtlNPGtB-39" style="edgeStyle=orthogonalEdgeStyle;rounded=0;orthogonalLoop=1;jettySize=auto;html=1;" edge="1" parent="1" source="GqS4ADtck2LcJtlNPGtB-37" target="GqS4ADtck2LcJtlNPGtB-12">
          <mxGeometry relative="1" as="geometry" />
        </mxCell>
        <mxCell id="GqS4ADtck2LcJtlNPGtB-37" value="username atau password salah" style="shape=parallelogram;perimeter=parallelogramPerimeter;whiteSpace=wrap;html=1;fixedSize=1;" vertex="1" parent="1">
          <mxGeometry x="920" y="570" width="120" height="60" as="geometry" />
        </mxCell>
        <mxCell id="GqS4ADtck2LcJtlNPGtB-43" style="edgeStyle=orthogonalEdgeStyle;rounded=0;orthogonalLoop=1;jettySize=auto;html=1;entryX=0;entryY=0.5;entryDx=0;entryDy=0;" edge="1" parent="1" source="GqS4ADtck2LcJtlNPGtB-40" target="GqS4ADtck2LcJtlNPGtB-42">
          <mxGeometry relative="1" as="geometry" />
        </mxCell>
        <mxCell id="D2EUQDMe06s1hFSbKbgp-1" value="yes" style="edgeLabel;html=1;align=center;verticalAlign=middle;resizable=0;points=[];" vertex="1" connectable="0" parent="GqS4ADtck2LcJtlNPGtB-43">
          <mxGeometry x="-0.5833" y="-1" relative="1" as="geometry">
            <mxPoint as="offset" />
          </mxGeometry>
        </mxCell>
        <mxCell id="GqS4ADtck2LcJtlNPGtB-45" style="edgeStyle=orthogonalEdgeStyle;rounded=0;orthogonalLoop=1;jettySize=auto;html=1;entryX=0.5;entryY=0;entryDx=0;entryDy=0;" edge="1" parent="1" source="GqS4ADtck2LcJtlNPGtB-40" target="GqS4ADtck2LcJtlNPGtB-44">
          <mxGeometry relative="1" as="geometry" />
        </mxCell>
        <mxCell id="D2EUQDMe06s1hFSbKbgp-2" value="no" style="edgeLabel;html=1;align=center;verticalAlign=middle;resizable=0;points=[];" vertex="1" connectable="0" parent="GqS4ADtck2LcJtlNPGtB-45">
          <mxGeometry x="-0.5437" y="3" relative="1" as="geometry">
            <mxPoint as="offset" />
          </mxGeometry>
        </mxCell>
        <mxCell id="GqS4ADtck2LcJtlNPGtB-40" value="username = admin123" style="rhombus;whiteSpace=wrap;html=1;" vertex="1" parent="1">
          <mxGeometry x="1100" y="720" width="80" height="80" as="geometry" />
        </mxCell>
        <mxCell id="GqS4ADtck2LcJtlNPGtB-42" value="Admin" style="shape=offPageConnector;whiteSpace=wrap;html=1;" vertex="1" parent="1">
          <mxGeometry x="1300" y="720" width="80" height="80" as="geometry" />
        </mxCell>
        <mxCell id="GqS4ADtck2LcJtlNPGtB-44" value="Donatur" style="shape=offPageConnector;whiteSpace=wrap;html=1;" vertex="1" parent="1">
          <mxGeometry x="1100" y="880" width="80" height="80" as="geometry" />
        </mxCell>
        <mxCell id="GqS4ADtck2LcJtlNPGtB-46" value="" style="endArrow=classic;html=1;rounded=0;exitX=0.563;exitY=1.047;exitDx=0;exitDy=0;exitPerimeter=0;" edge="1" parent="1">
          <mxGeometry width="50" height="50" relative="1" as="geometry">
            <mxPoint x="440" y="1260" as="sourcePoint" />
            <mxPoint x="492.44000000000005" y="1260.18" as="targetPoint" />
          </mxGeometry>
        </mxCell>
        <mxCell id="GqS4ADtck2LcJtlNPGtB-47" value="" style="endArrow=classic;html=1;rounded=0;exitX=0.563;exitY=1.047;exitDx=0;exitDy=0;exitPerimeter=0;" edge="1" parent="1">
          <mxGeometry width="50" height="50" relative="1" as="geometry">
            <mxPoint x="987.56" y="630" as="sourcePoint" />
            <mxPoint x="1040" y="630.1800000000001" as="targetPoint" />
          </mxGeometry>
        </mxCell>
        <mxCell id="fyAF0N4ZfVZI4PPGpyn3-5" value="yes" style="edgeStyle=orthogonalEdgeStyle;rounded=0;orthogonalLoop=1;jettySize=auto;html=1;entryX=0;entryY=0.5;entryDx=0;entryDy=0;" edge="1" parent="1" source="fyAF0N4ZfVZI4PPGpyn3-2" target="fyAF0N4ZfVZI4PPGpyn3-4">
          <mxGeometry relative="1" as="geometry" />
        </mxCell>
        <mxCell id="fyAF0N4ZfVZI4PPGpyn3-6" value="no" style="edgeStyle=orthogonalEdgeStyle;rounded=0;orthogonalLoop=1;jettySize=auto;html=1;entryX=0.5;entryY=0;entryDx=0;entryDy=0;" edge="1" parent="1" source="fyAF0N4ZfVZI4PPGpyn3-2" target="GqS4ADtck2LcJtlNPGtB-28">
          <mxGeometry relative="1" as="geometry" />
        </mxCell>
        <mxCell id="fyAF0N4ZfVZI4PPGpyn3-2" value="Pilih = 3?" style="rhombus;whiteSpace=wrap;html=1;" vertex="1" parent="1">
          <mxGeometry x="380" y="1040" width="80" height="80" as="geometry" />
        </mxCell>
        <mxCell id="fyAF0N4ZfVZI4PPGpyn3-4" value="End" style="ellipse;whiteSpace=wrap;html=1;" vertex="1" parent="1">
          <mxGeometry x="520" y="1040" width="120" height="80" as="geometry" />
        </mxCell>
        <mxCell id="4_dAdiXMoItOi-hEnoKA-3" style="edgeStyle=orthogonalEdgeStyle;rounded=0;orthogonalLoop=1;jettySize=auto;html=1;entryX=0.5;entryY=0;entryDx=0;entryDy=0;" edge="1" parent="1" source="4_dAdiXMoItOi-hEnoKA-1" target="GqS4ADtck2LcJtlNPGtB-1">
          <mxGeometry relative="1" as="geometry" />
        </mxCell>
        <mxCell id="4_dAdiXMoItOi-hEnoKA-1" value="Login" style="shape=offPageConnector;whiteSpace=wrap;html=1;" vertex="1" parent="1">
          <mxGeometry x="380" y="70" width="80" height="80" as="geometry" />
        </mxCell>
      </root>
    </mxGraphModel>
  </diagram>
  <diagram id="LLaEL7G_0xjaMWDJw6gp" name="Donatur">
    <mxGraphModel dx="1843" dy="887" grid="1" gridSize="10" guides="1" tooltips="1" connect="1" arrows="1" fold="1" page="1" pageScale="1" pageWidth="850" pageHeight="1100" math="0" shadow="0">
      <root>
        <mxCell id="0" />
        <mxCell id="1" parent="0" />
        <mxCell id="klF6MO0737kCPwB44R9i-3" value="" style="edgeStyle=orthogonalEdgeStyle;rounded=0;orthogonalLoop=1;jettySize=auto;html=1;" edge="1" parent="1" source="klF6MO0737kCPwB44R9i-1" target="klF6MO0737kCPwB44R9i-2">
          <mxGeometry relative="1" as="geometry" />
        </mxCell>
        <mxCell id="klF6MO0737kCPwB44R9i-1" value="Donatur" style="shape=offPageConnector;whiteSpace=wrap;html=1;" vertex="1" parent="1">
          <mxGeometry x="380" y="280" width="80" height="80" as="geometry" />
        </mxCell>
        <mxCell id="T1mGJ93AMP27hBClklSU-2" value="" style="edgeStyle=orthogonalEdgeStyle;rounded=0;orthogonalLoop=1;jettySize=auto;html=1;" edge="1" parent="1" source="klF6MO0737kCPwB44R9i-2" target="T1mGJ93AMP27hBClklSU-1">
          <mxGeometry relative="1" as="geometry" />
        </mxCell>
        <mxCell id="klF6MO0737kCPwB44R9i-2" value="Menu:&lt;br&gt;1.Donasi&lt;div&gt;2.Lihat riwayat&lt;br&gt;3.Logout&lt;/div&gt;" style="shape=parallelogram;perimeter=parallelogramPerimeter;whiteSpace=wrap;html=1;fixedSize=1;" vertex="1" parent="1">
          <mxGeometry x="360" y="450" width="120" height="60" as="geometry" />
        </mxCell>
        <mxCell id="pKJ_ErkA25KADWrP59Jb-2" value="" style="edgeStyle=orthogonalEdgeStyle;rounded=0;orthogonalLoop=1;jettySize=auto;html=1;" edge="1" parent="1" source="T1mGJ93AMP27hBClklSU-1" target="pKJ_ErkA25KADWrP59Jb-1">
          <mxGeometry relative="1" as="geometry" />
        </mxCell>
        <mxCell id="T1mGJ93AMP27hBClklSU-1" value="pilih" style="shape=parallelogram;perimeter=parallelogramPerimeter;whiteSpace=wrap;html=1;fixedSize=1;" vertex="1" parent="1">
          <mxGeometry x="360" y="590" width="120" height="60" as="geometry" />
        </mxCell>
        <mxCell id="pKJ_ErkA25KADWrP59Jb-4" value="no" style="edgeStyle=orthogonalEdgeStyle;rounded=0;orthogonalLoop=1;jettySize=auto;html=1;" edge="1" parent="1" source="pKJ_ErkA25KADWrP59Jb-1" target="pKJ_ErkA25KADWrP59Jb-3">
          <mxGeometry relative="1" as="geometry" />
        </mxCell>
        <mxCell id="hSk_HQg3NyplWFDaC1KE-2" value="yes" style="edgeStyle=orthogonalEdgeStyle;rounded=0;orthogonalLoop=1;jettySize=auto;html=1;" edge="1" parent="1" source="pKJ_ErkA25KADWrP59Jb-1" target="hSk_HQg3NyplWFDaC1KE-1">
          <mxGeometry relative="1" as="geometry" />
        </mxCell>
        <mxCell id="pKJ_ErkA25KADWrP59Jb-1" value="pilih = 1?" style="rhombus;whiteSpace=wrap;html=1;" vertex="1" parent="1">
          <mxGeometry x="380" y="720" width="80" height="80" as="geometry" />
        </mxCell>
        <mxCell id="pKJ_ErkA25KADWrP59Jb-6" value="yes" style="edgeStyle=orthogonalEdgeStyle;rounded=0;orthogonalLoop=1;jettySize=auto;html=1;" edge="1" parent="1" source="pKJ_ErkA25KADWrP59Jb-3" target="pKJ_ErkA25KADWrP59Jb-5">
          <mxGeometry relative="1" as="geometry" />
        </mxCell>
        <mxCell id="Xhe3XAbBw6rgIJm_OXWb-2" value="" style="edgeStyle=orthogonalEdgeStyle;rounded=0;orthogonalLoop=1;jettySize=auto;html=1;" edge="1" parent="1" source="pKJ_ErkA25KADWrP59Jb-3" target="Xhe3XAbBw6rgIJm_OXWb-1">
          <mxGeometry relative="1" as="geometry" />
        </mxCell>
        <mxCell id="pKJ_ErkA25KADWrP59Jb-3" value="pilih = 2?" style="rhombus;whiteSpace=wrap;html=1;" vertex="1" parent="1">
          <mxGeometry x="380" y="880" width="80" height="80" as="geometry" />
        </mxCell>
        <mxCell id="-6reJIBtG3-5HankF-kT-2" style="edgeStyle=orthogonalEdgeStyle;rounded=0;orthogonalLoop=1;jettySize=auto;html=1;entryX=0;entryY=0.5;entryDx=0;entryDy=0;" edge="1" parent="1" source="pKJ_ErkA25KADWrP59Jb-5" target="klF6MO0737kCPwB44R9i-2">
          <mxGeometry relative="1" as="geometry">
            <Array as="points">
              <mxPoint x="770" y="920" />
              <mxPoint x="770" y="1370" />
              <mxPoint x="270" y="1370" />
              <mxPoint x="270" y="480" />
            </Array>
          </mxGeometry>
        </mxCell>
        <mxCell id="pKJ_ErkA25KADWrP59Jb-5" value="Tampilkan riwayat donasi" style="whiteSpace=wrap;html=1;" vertex="1" parent="1">
          <mxGeometry x="520" y="890" width="120" height="60" as="geometry" />
        </mxCell>
        <mxCell id="-6reJIBtG3-5HankF-kT-3" style="edgeStyle=orthogonalEdgeStyle;rounded=0;orthogonalLoop=1;jettySize=auto;html=1;entryX=0;entryY=0.5;entryDx=0;entryDy=0;" edge="1" parent="1" source="pKJ_ErkA25KADWrP59Jb-7" target="klF6MO0737kCPwB44R9i-2">
          <mxGeometry relative="1" as="geometry">
            <Array as="points">
              <mxPoint x="420" y="1370" />
              <mxPoint x="270" y="1370" />
              <mxPoint x="270" y="480" />
            </Array>
          </mxGeometry>
        </mxCell>
        <mxCell id="pKJ_ErkA25KADWrP59Jb-7" value="pilihan tidak valid" style="shape=parallelogram;perimeter=parallelogramPerimeter;whiteSpace=wrap;html=1;fixedSize=1;" vertex="1" parent="1">
          <mxGeometry x="360" y="1210" width="120" height="60" as="geometry" />
        </mxCell>
        <mxCell id="cJ8vrHxfQ4fwDbSjsiK4-2" value="" style="edgeStyle=orthogonalEdgeStyle;rounded=0;orthogonalLoop=1;jettySize=auto;html=1;" edge="1" parent="1" source="hSk_HQg3NyplWFDaC1KE-1" target="cJ8vrHxfQ4fwDbSjsiK4-1">
          <mxGeometry relative="1" as="geometry" />
        </mxCell>
        <mxCell id="hSk_HQg3NyplWFDaC1KE-1" value="arah donasi:&lt;br&gt;1.Kesehatan&lt;div&gt;2.Bencana alam&lt;br&gt;3.Kecelekan&lt;br&gt;4.Panti&lt;br&gt;&lt;/div&gt;&lt;div&gt;5.Pendidikan&lt;/div&gt;" style="shape=parallelogram;perimeter=parallelogramPerimeter;whiteSpace=wrap;html=1;fixedSize=1;" vertex="1" parent="1">
          <mxGeometry x="550" y="717.5" width="130" height="85" as="geometry" />
        </mxCell>
        <mxCell id="hSk_HQg3NyplWFDaC1KE-10" value="" style="edgeStyle=orthogonalEdgeStyle;rounded=0;orthogonalLoop=1;jettySize=auto;html=1;" edge="1" parent="1" source="hSk_HQg3NyplWFDaC1KE-3" target="hSk_HQg3NyplWFDaC1KE-9">
          <mxGeometry relative="1" as="geometry" />
        </mxCell>
        <mxCell id="hSk_HQg3NyplWFDaC1KE-3" value="Masukkan &lt;br&gt;nominal donasi" style="shape=parallelogram;perimeter=parallelogramPerimeter;whiteSpace=wrap;html=1;fixedSize=1;" vertex="1" parent="1">
          <mxGeometry x="980" y="730" width="120" height="60" as="geometry" />
        </mxCell>
        <mxCell id="-6reJIBtG3-5HankF-kT-1" style="edgeStyle=orthogonalEdgeStyle;rounded=0;orthogonalLoop=1;jettySize=auto;html=1;entryX=0;entryY=0.5;entryDx=0;entryDy=0;" edge="1" parent="1" source="hSk_HQg3NyplWFDaC1KE-9" target="klF6MO0737kCPwB44R9i-2">
          <mxGeometry relative="1" as="geometry">
            <Array as="points">
              <mxPoint x="1240" y="1370" />
              <mxPoint x="270" y="1370" />
              <mxPoint x="270" y="480" />
            </Array>
          </mxGeometry>
        </mxCell>
        <mxCell id="hSk_HQg3NyplWFDaC1KE-9" value="Simpan donasi" style="whiteSpace=wrap;html=1;" vertex="1" parent="1">
          <mxGeometry x="1180" y="730" width="120" height="60" as="geometry" />
        </mxCell>
        <mxCell id="cJ8vrHxfQ4fwDbSjsiK4-3" style="edgeStyle=orthogonalEdgeStyle;rounded=0;orthogonalLoop=1;jettySize=auto;html=1;" edge="1" parent="1" source="cJ8vrHxfQ4fwDbSjsiK4-1" target="hSk_HQg3NyplWFDaC1KE-3">
          <mxGeometry relative="1" as="geometry" />
        </mxCell>
        <mxCell id="cJ8vrHxfQ4fwDbSjsiK4-1" value="Pilih arah" style="shape=parallelogram;perimeter=parallelogramPerimeter;whiteSpace=wrap;html=1;fixedSize=1;" vertex="1" parent="1">
          <mxGeometry x="765" y="730" width="120" height="60" as="geometry" />
        </mxCell>
        <mxCell id="cJ8vrHxfQ4fwDbSjsiK4-4" value="" style="endArrow=classic;html=1;rounded=0;exitX=0.563;exitY=1.047;exitDx=0;exitDy=0;exitPerimeter=0;" edge="1" parent="1">
          <mxGeometry width="50" height="50" relative="1" as="geometry">
            <mxPoint x="640" y="802.5" as="sourcePoint" />
            <mxPoint x="692.44" y="802.6800000000001" as="targetPoint" />
          </mxGeometry>
        </mxCell>
        <mxCell id="cJ8vrHxfQ4fwDbSjsiK4-5" value="" style="endArrow=classic;html=1;rounded=0;exitX=0.563;exitY=1.047;exitDx=0;exitDy=0;exitPerimeter=0;" edge="1" parent="1">
          <mxGeometry width="50" height="50" relative="1" as="geometry">
            <mxPoint x="427.56" y="510" as="sourcePoint" />
            <mxPoint x="480.00000000000006" y="510.18000000000006" as="targetPoint" />
          </mxGeometry>
        </mxCell>
        <mxCell id="cJ8vrHxfQ4fwDbSjsiK4-6" value="" style="endArrow=classic;html=1;rounded=0;exitX=0.563;exitY=1.047;exitDx=0;exitDy=0;exitPerimeter=0;" edge="1" parent="1">
          <mxGeometry width="50" height="50" relative="1" as="geometry">
            <mxPoint x="760" y="730" as="sourcePoint" />
            <mxPoint x="812.44" y="730.1800000000001" as="targetPoint" />
          </mxGeometry>
        </mxCell>
        <mxCell id="cJ8vrHxfQ4fwDbSjsiK4-7" value="" style="endArrow=classic;html=1;rounded=0;exitX=0.563;exitY=1.047;exitDx=0;exitDy=0;exitPerimeter=0;" edge="1" parent="1">
          <mxGeometry width="50" height="50" relative="1" as="geometry">
            <mxPoint x="970" y="730" as="sourcePoint" />
            <mxPoint x="1022.44" y="730.1800000000001" as="targetPoint" />
          </mxGeometry>
        </mxCell>
        <mxCell id="Xhe3XAbBw6rgIJm_OXWb-4" style="edgeStyle=orthogonalEdgeStyle;rounded=0;orthogonalLoop=1;jettySize=auto;html=1;entryX=0;entryY=0.5;entryDx=0;entryDy=0;" edge="1" parent="1" source="Xhe3XAbBw6rgIJm_OXWb-1" target="Xhe3XAbBw6rgIJm_OXWb-3">
          <mxGeometry relative="1" as="geometry" />
        </mxCell>
        <mxCell id="AJ_4oXMNCUNCouQKp88G-1" style="edgeStyle=orthogonalEdgeStyle;rounded=0;orthogonalLoop=1;jettySize=auto;html=1;entryX=0.5;entryY=0;entryDx=0;entryDy=0;" edge="1" parent="1" source="Xhe3XAbBw6rgIJm_OXWb-1" target="pKJ_ErkA25KADWrP59Jb-7">
          <mxGeometry relative="1" as="geometry" />
        </mxCell>
        <mxCell id="Xhe3XAbBw6rgIJm_OXWb-1" value="pilih = 3?" style="rhombus;whiteSpace=wrap;html=1;" vertex="1" parent="1">
          <mxGeometry x="380" y="1040" width="80" height="80" as="geometry" />
        </mxCell>
        <mxCell id="Xhe3XAbBw6rgIJm_OXWb-3" value="Login" style="shape=offPageConnector;whiteSpace=wrap;html=1;" vertex="1" parent="1">
          <mxGeometry x="630" y="1040" width="80" height="80" as="geometry" />
        </mxCell>
        <mxCell id="AJ_4oXMNCUNCouQKp88G-2" value="" style="endArrow=classic;html=1;rounded=0;" edge="1" parent="1">
          <mxGeometry width="50" height="50" relative="1" as="geometry">
            <mxPoint x="340" y="590" as="sourcePoint" />
            <mxPoint x="420" y="590" as="targetPoint" />
          </mxGeometry>
        </mxCell>
      </root>
    </mxGraphModel>
  </diagram>
  <diagram id="klHb4CbbXx0kQ9a9Hes8" name="Admin">
    <mxGraphModel dx="1843" dy="887" grid="1" gridSize="10" guides="1" tooltips="1" connect="1" arrows="1" fold="1" page="1" pageScale="1" pageWidth="850" pageHeight="1100" math="0" shadow="0">
      <root>
        <mxCell id="0" />
        <mxCell id="1" parent="0" />
        <mxCell id="DjbAemPv4hYNFd6ZMYBn-3" value="" style="edgeStyle=orthogonalEdgeStyle;rounded=0;orthogonalLoop=1;jettySize=auto;html=1;" edge="1" parent="1" source="DjbAemPv4hYNFd6ZMYBn-1" target="DjbAemPv4hYNFd6ZMYBn-2">
          <mxGeometry relative="1" as="geometry" />
        </mxCell>
        <mxCell id="DjbAemPv4hYNFd6ZMYBn-1" value="Admin" style="shape=offPageConnector;whiteSpace=wrap;html=1;" vertex="1" parent="1">
          <mxGeometry x="380" y="280" width="80" height="80" as="geometry" />
        </mxCell>
        <mxCell id="L3Rhx19KeKvdn4Jw9mcy-2" value="" style="edgeStyle=orthogonalEdgeStyle;rounded=0;orthogonalLoop=1;jettySize=auto;html=1;" edge="1" parent="1" source="DjbAemPv4hYNFd6ZMYBn-2" target="L3Rhx19KeKvdn4Jw9mcy-1">
          <mxGeometry relative="1" as="geometry" />
        </mxCell>
        <mxCell id="DjbAemPv4hYNFd6ZMYBn-2" value="Menu :&lt;div&gt;1.Lihat donasi (sort by A-Z)&lt;br&gt;2.Lihat donasi (sort by Z-A)&lt;br&gt;3.Lihat donasi (sort by nominal tertinggi)&lt;/div&gt;&lt;div&gt;4.Tambah kategori donasi&lt;/div&gt;&lt;div&gt;5.Hapus kategori donasi&lt;/div&gt;&lt;div&gt;6.Update status donasi&lt;br&gt;7.Logout&lt;/div&gt;" style="shape=parallelogram;perimeter=parallelogramPerimeter;whiteSpace=wrap;html=1;fixedSize=1;" vertex="1" parent="1">
          <mxGeometry x="297.5" y="470" width="245" height="180" as="geometry" />
        </mxCell>
        <mxCell id="L3Rhx19KeKvdn4Jw9mcy-4" value="" style="edgeStyle=orthogonalEdgeStyle;rounded=0;orthogonalLoop=1;jettySize=auto;html=1;" edge="1" parent="1" source="L3Rhx19KeKvdn4Jw9mcy-1" target="L3Rhx19KeKvdn4Jw9mcy-3">
          <mxGeometry relative="1" as="geometry" />
        </mxCell>
        <mxCell id="L3Rhx19KeKvdn4Jw9mcy-1" value="pilih" style="shape=parallelogram;perimeter=parallelogramPerimeter;whiteSpace=wrap;html=1;fixedSize=1;" vertex="1" parent="1">
          <mxGeometry x="360" y="740" width="120" height="60" as="geometry" />
        </mxCell>
        <mxCell id="wQbYnaiTET5U_DJyjIvu-2" value="yes" style="edgeStyle=orthogonalEdgeStyle;rounded=0;orthogonalLoop=1;jettySize=auto;html=1;" edge="1" parent="1" source="L3Rhx19KeKvdn4Jw9mcy-3" target="wQbYnaiTET5U_DJyjIvu-1">
          <mxGeometry relative="1" as="geometry" />
        </mxCell>
        <mxCell id="wQbYnaiTET5U_DJyjIvu-4" value="no" style="edgeStyle=orthogonalEdgeStyle;rounded=0;orthogonalLoop=1;jettySize=auto;html=1;" edge="1" parent="1" source="L3Rhx19KeKvdn4Jw9mcy-3" target="wQbYnaiTET5U_DJyjIvu-3">
          <mxGeometry relative="1" as="geometry" />
        </mxCell>
        <mxCell id="L3Rhx19KeKvdn4Jw9mcy-3" value="pilih = 1?" style="rhombus;whiteSpace=wrap;html=1;" vertex="1" parent="1">
          <mxGeometry x="380" y="870" width="80" height="80" as="geometry" />
        </mxCell>
        <mxCell id="11tLpaPTzXhd942qfP_N-17" style="edgeStyle=orthogonalEdgeStyle;rounded=0;orthogonalLoop=1;jettySize=auto;html=1;endArrow=none;startFill=0;" edge="1" parent="1" source="wQbYnaiTET5U_DJyjIvu-1">
          <mxGeometry relative="1" as="geometry">
            <mxPoint x="1200" y="910" as="targetPoint" />
          </mxGeometry>
        </mxCell>
        <mxCell id="wQbYnaiTET5U_DJyjIvu-1" value="Tampilkan donasi (sort A-Z)" style="whiteSpace=wrap;html=1;" vertex="1" parent="1">
          <mxGeometry x="520" y="880" width="120" height="60" as="geometry" />
        </mxCell>
        <mxCell id="wQbYnaiTET5U_DJyjIvu-6" value="yes" style="edgeStyle=orthogonalEdgeStyle;rounded=0;orthogonalLoop=1;jettySize=auto;html=1;" edge="1" parent="1" source="wQbYnaiTET5U_DJyjIvu-3" target="wQbYnaiTET5U_DJyjIvu-5">
          <mxGeometry relative="1" as="geometry" />
        </mxCell>
        <mxCell id="wQbYnaiTET5U_DJyjIvu-8" value="no" style="edgeStyle=orthogonalEdgeStyle;rounded=0;orthogonalLoop=1;jettySize=auto;html=1;" edge="1" parent="1" source="wQbYnaiTET5U_DJyjIvu-3" target="wQbYnaiTET5U_DJyjIvu-7">
          <mxGeometry relative="1" as="geometry" />
        </mxCell>
        <mxCell id="wQbYnaiTET5U_DJyjIvu-3" value="pilih = 2?" style="rhombus;whiteSpace=wrap;html=1;" vertex="1" parent="1">
          <mxGeometry x="380" y="1030" width="80" height="80" as="geometry" />
        </mxCell>
        <mxCell id="11tLpaPTzXhd942qfP_N-18" style="edgeStyle=orthogonalEdgeStyle;rounded=0;orthogonalLoop=1;jettySize=auto;html=1;endArrow=none;startFill=0;" edge="1" parent="1" source="wQbYnaiTET5U_DJyjIvu-5">
          <mxGeometry relative="1" as="geometry">
            <mxPoint x="1200" y="1070" as="targetPoint" />
          </mxGeometry>
        </mxCell>
        <mxCell id="wQbYnaiTET5U_DJyjIvu-5" value="&lt;br&gt;&lt;span style=&quot;color: rgb(0, 0, 0); font-family: Helvetica; font-size: 12px; font-style: normal; font-variant-ligatures: normal; font-variant-caps: normal; font-weight: 400; letter-spacing: normal; orphans: 2; text-align: center; text-indent: 0px; text-transform: none; widows: 2; word-spacing: 0px; -webkit-text-stroke-width: 0px; white-space: normal; background-color: rgb(251, 251, 251); text-decoration-thickness: initial; text-decoration-style: initial; text-decoration-color: initial; display: inline !important; float: none;&quot;&gt;Tampilkan donasi (sort Z-A)&lt;/span&gt;&lt;div&gt;&lt;br/&gt;&lt;/div&gt;" style="whiteSpace=wrap;html=1;" vertex="1" parent="1">
          <mxGeometry x="520" y="1040" width="120" height="60" as="geometry" />
        </mxCell>
        <mxCell id="wQbYnaiTET5U_DJyjIvu-10" value="yes" style="edgeStyle=orthogonalEdgeStyle;rounded=0;orthogonalLoop=1;jettySize=auto;html=1;" edge="1" parent="1" source="wQbYnaiTET5U_DJyjIvu-7" target="wQbYnaiTET5U_DJyjIvu-9">
          <mxGeometry relative="1" as="geometry" />
        </mxCell>
        <mxCell id="wQbYnaiTET5U_DJyjIvu-12" value="no" style="edgeStyle=orthogonalEdgeStyle;rounded=0;orthogonalLoop=1;jettySize=auto;html=1;" edge="1" parent="1" source="wQbYnaiTET5U_DJyjIvu-7" target="wQbYnaiTET5U_DJyjIvu-11">
          <mxGeometry relative="1" as="geometry" />
        </mxCell>
        <mxCell id="wQbYnaiTET5U_DJyjIvu-7" value="pilih = 3?" style="rhombus;whiteSpace=wrap;html=1;" vertex="1" parent="1">
          <mxGeometry x="380" y="1190" width="80" height="80" as="geometry" />
        </mxCell>
        <mxCell id="11tLpaPTzXhd942qfP_N-19" style="edgeStyle=orthogonalEdgeStyle;rounded=0;orthogonalLoop=1;jettySize=auto;html=1;endArrow=none;startFill=0;" edge="1" parent="1" source="wQbYnaiTET5U_DJyjIvu-9">
          <mxGeometry relative="1" as="geometry">
            <mxPoint x="1200" y="1230" as="targetPoint" />
          </mxGeometry>
        </mxCell>
        <mxCell id="wQbYnaiTET5U_DJyjIvu-9" value="&lt;div&gt;&lt;br&gt;&lt;/div&gt;&lt;div&gt;&lt;br&gt;&lt;/div&gt;&lt;br style=&quot;forced-color-adjust: none;&quot;&gt;&lt;span style=&quot;forced-color-adjust: none; color: rgb(0, 0, 0); font-family: Helvetica; font-size: 12px; font-style: normal; font-variant-ligatures: normal; font-variant-caps: normal; font-weight: 400; letter-spacing: normal; orphans: 2; text-align: center; text-indent: 0px; text-transform: none; widows: 2; word-spacing: 0px; -webkit-text-stroke-width: 0px; white-space: normal; background-color: rgb(251, 251, 251); text-decoration-thickness: initial; text-decoration-style: initial; text-decoration-color: initial; float: none; display: inline !important;&quot;&gt;Tampilkan donasi&lt;br&gt;(sort nominal tertinggi - terendah)&lt;/span&gt;&lt;div style=&quot;forced-color-adjust: none;&quot;&gt;&lt;br style=&quot;forced-color-adjust: none; color: rgb(0, 0, 0); font-family: Helvetica; font-size: 12px; font-style: normal; font-variant-ligatures: normal; font-variant-caps: normal; font-weight: 400; letter-spacing: normal; orphans: 2; text-align: center; text-indent: 0px; text-transform: none; widows: 2; word-spacing: 0px; -webkit-text-stroke-width: 0px; white-space: normal; background-color: rgb(251, 251, 251); text-decoration-thickness: initial; text-decoration-style: initial; text-decoration-color: initial;&quot;&gt;&lt;br&gt;&lt;br&gt;&lt;/div&gt;" style="whiteSpace=wrap;html=1;" vertex="1" parent="1">
          <mxGeometry x="520" y="1200" width="190" height="60" as="geometry" />
        </mxCell>
        <mxCell id="wQbYnaiTET5U_DJyjIvu-14" value="yes" style="edgeStyle=orthogonalEdgeStyle;rounded=0;orthogonalLoop=1;jettySize=auto;html=1;" edge="1" parent="1" source="wQbYnaiTET5U_DJyjIvu-11" target="wQbYnaiTET5U_DJyjIvu-13">
          <mxGeometry relative="1" as="geometry" />
        </mxCell>
        <mxCell id="wQbYnaiTET5U_DJyjIvu-18" value="no" style="edgeStyle=orthogonalEdgeStyle;rounded=0;orthogonalLoop=1;jettySize=auto;html=1;" edge="1" parent="1" source="wQbYnaiTET5U_DJyjIvu-11" target="wQbYnaiTET5U_DJyjIvu-17">
          <mxGeometry relative="1" as="geometry" />
        </mxCell>
        <mxCell id="wQbYnaiTET5U_DJyjIvu-11" value="pilih = 4?" style="rhombus;whiteSpace=wrap;html=1;" vertex="1" parent="1">
          <mxGeometry x="380" y="1350" width="80" height="80" as="geometry" />
        </mxCell>
        <mxCell id="wQbYnaiTET5U_DJyjIvu-16" value="" style="edgeStyle=orthogonalEdgeStyle;rounded=0;orthogonalLoop=1;jettySize=auto;html=1;" edge="1" parent="1" source="wQbYnaiTET5U_DJyjIvu-13" target="wQbYnaiTET5U_DJyjIvu-15">
          <mxGeometry relative="1" as="geometry" />
        </mxCell>
        <mxCell id="wQbYnaiTET5U_DJyjIvu-13" value="Masukkan nama kategori donasi" style="shape=parallelogram;perimeter=parallelogramPerimeter;whiteSpace=wrap;html=1;fixedSize=1;" vertex="1" parent="1">
          <mxGeometry x="520" y="1360" width="120" height="60" as="geometry" />
        </mxCell>
        <mxCell id="11tLpaPTzXhd942qfP_N-20" style="edgeStyle=orthogonalEdgeStyle;rounded=0;orthogonalLoop=1;jettySize=auto;html=1;endArrow=none;startFill=0;" edge="1" parent="1" source="wQbYnaiTET5U_DJyjIvu-15">
          <mxGeometry relative="1" as="geometry">
            <mxPoint x="1200" y="1390" as="targetPoint" />
          </mxGeometry>
        </mxCell>
        <mxCell id="wQbYnaiTET5U_DJyjIvu-15" value="Simpan kategori donasi" style="whiteSpace=wrap;html=1;" vertex="1" parent="1">
          <mxGeometry x="720" y="1360" width="120" height="60" as="geometry" />
        </mxCell>
        <mxCell id="wQbYnaiTET5U_DJyjIvu-20" value="yes" style="edgeStyle=orthogonalEdgeStyle;rounded=0;orthogonalLoop=1;jettySize=auto;html=1;" edge="1" parent="1" source="wQbYnaiTET5U_DJyjIvu-17" target="wQbYnaiTET5U_DJyjIvu-19">
          <mxGeometry relative="1" as="geometry" />
        </mxCell>
        <mxCell id="wQbYnaiTET5U_DJyjIvu-24" value="no" style="edgeStyle=orthogonalEdgeStyle;rounded=0;orthogonalLoop=1;jettySize=auto;html=1;" edge="1" parent="1" source="wQbYnaiTET5U_DJyjIvu-17" target="wQbYnaiTET5U_DJyjIvu-23">
          <mxGeometry relative="1" as="geometry" />
        </mxCell>
        <mxCell id="wQbYnaiTET5U_DJyjIvu-17" value="pilih = 5?" style="rhombus;whiteSpace=wrap;html=1;" vertex="1" parent="1">
          <mxGeometry x="380" y="1510" width="80" height="80" as="geometry" />
        </mxCell>
        <mxCell id="wQbYnaiTET5U_DJyjIvu-22" value="" style="edgeStyle=orthogonalEdgeStyle;rounded=0;orthogonalLoop=1;jettySize=auto;html=1;" edge="1" parent="1" source="wQbYnaiTET5U_DJyjIvu-19" target="wQbYnaiTET5U_DJyjIvu-21">
          <mxGeometry relative="1" as="geometry" />
        </mxCell>
        <mxCell id="wQbYnaiTET5U_DJyjIvu-19" value="Pilih kategori&lt;br&gt;donasi" style="shape=parallelogram;perimeter=parallelogramPerimeter;whiteSpace=wrap;html=1;fixedSize=1;" vertex="1" parent="1">
          <mxGeometry x="520" y="1520" width="120" height="60" as="geometry" />
        </mxCell>
        <mxCell id="11tLpaPTzXhd942qfP_N-21" style="edgeStyle=orthogonalEdgeStyle;rounded=0;orthogonalLoop=1;jettySize=auto;html=1;endArrow=none;startFill=0;" edge="1" parent="1" source="wQbYnaiTET5U_DJyjIvu-21">
          <mxGeometry relative="1" as="geometry">
            <mxPoint x="1200" y="1550" as="targetPoint" />
          </mxGeometry>
        </mxCell>
        <mxCell id="wQbYnaiTET5U_DJyjIvu-21" value="Hapus donasi" style="whiteSpace=wrap;html=1;" vertex="1" parent="1">
          <mxGeometry x="720" y="1520" width="120" height="60" as="geometry" />
        </mxCell>
        <mxCell id="11tLpaPTzXhd942qfP_N-4" value="no" style="edgeStyle=orthogonalEdgeStyle;rounded=0;orthogonalLoop=1;jettySize=auto;html=1;" edge="1" parent="1" source="wQbYnaiTET5U_DJyjIvu-23" target="11tLpaPTzXhd942qfP_N-3">
          <mxGeometry relative="1" as="geometry" />
        </mxCell>
        <mxCell id="11tLpaPTzXhd942qfP_N-11" value="yes" style="edgeStyle=orthogonalEdgeStyle;rounded=0;orthogonalLoop=1;jettySize=auto;html=1;" edge="1" parent="1" source="wQbYnaiTET5U_DJyjIvu-23" target="11tLpaPTzXhd942qfP_N-10">
          <mxGeometry relative="1" as="geometry" />
        </mxCell>
        <mxCell id="wQbYnaiTET5U_DJyjIvu-23" value="pilih = 6?" style="rhombus;whiteSpace=wrap;html=1;" vertex="1" parent="1">
          <mxGeometry x="380" y="1670" width="80" height="80" as="geometry" />
        </mxCell>
        <mxCell id="wQbYnaiTET5U_DJyjIvu-26" value="" style="endArrow=classic;html=1;rounded=0;" edge="1" parent="1">
          <mxGeometry width="50" height="50" relative="1" as="geometry">
            <mxPoint x="510" y="650" as="sourcePoint" />
            <mxPoint x="570" y="650" as="targetPoint" />
          </mxGeometry>
        </mxCell>
        <mxCell id="wQbYnaiTET5U_DJyjIvu-27" value="" style="endArrow=classic;html=1;rounded=0;" edge="1" parent="1">
          <mxGeometry width="50" height="50" relative="1" as="geometry">
            <mxPoint x="510" y="1360" as="sourcePoint" />
            <mxPoint x="570" y="1360" as="targetPoint" />
          </mxGeometry>
        </mxCell>
        <mxCell id="wQbYnaiTET5U_DJyjIvu-28" value="" style="endArrow=classic;html=1;rounded=0;" edge="1" parent="1">
          <mxGeometry width="50" height="50" relative="1" as="geometry">
            <mxPoint x="510" y="1520" as="sourcePoint" />
            <mxPoint x="570" y="1520" as="targetPoint" />
          </mxGeometry>
        </mxCell>
        <mxCell id="11tLpaPTzXhd942qfP_N-2" value="" style="edgeStyle=orthogonalEdgeStyle;rounded=0;orthogonalLoop=1;jettySize=auto;html=1;" edge="1" parent="1" source="wQbYnaiTET5U_DJyjIvu-31" target="11tLpaPTzXhd942qfP_N-1">
          <mxGeometry relative="1" as="geometry" />
        </mxCell>
        <mxCell id="wQbYnaiTET5U_DJyjIvu-31" value="Pilih donasi" style="shape=parallelogram;perimeter=parallelogramPerimeter;whiteSpace=wrap;html=1;fixedSize=1;" vertex="1" parent="1">
          <mxGeometry x="720" y="1680" width="120" height="60" as="geometry" />
        </mxCell>
        <mxCell id="11tLpaPTzXhd942qfP_N-22" style="edgeStyle=orthogonalEdgeStyle;rounded=0;orthogonalLoop=1;jettySize=auto;html=1;endArrow=none;startFill=0;" edge="1" parent="1" source="11tLpaPTzXhd942qfP_N-1">
          <mxGeometry relative="1" as="geometry">
            <mxPoint x="1200" y="1710" as="targetPoint" />
          </mxGeometry>
        </mxCell>
        <mxCell id="11tLpaPTzXhd942qfP_N-1" value="Ubah status donasi" style="whiteSpace=wrap;html=1;" vertex="1" parent="1">
          <mxGeometry x="920" y="1680" width="120" height="60" as="geometry" />
        </mxCell>
        <mxCell id="11tLpaPTzXhd942qfP_N-6" value="yes" style="edgeStyle=orthogonalEdgeStyle;rounded=0;orthogonalLoop=1;jettySize=auto;html=1;" edge="1" parent="1" source="11tLpaPTzXhd942qfP_N-3" target="11tLpaPTzXhd942qfP_N-5">
          <mxGeometry relative="1" as="geometry" />
        </mxCell>
        <mxCell id="11tLpaPTzXhd942qfP_N-8" value="no" style="edgeStyle=orthogonalEdgeStyle;rounded=0;orthogonalLoop=1;jettySize=auto;html=1;" edge="1" parent="1" source="11tLpaPTzXhd942qfP_N-3" target="11tLpaPTzXhd942qfP_N-7">
          <mxGeometry relative="1" as="geometry" />
        </mxCell>
        <mxCell id="11tLpaPTzXhd942qfP_N-3" value="pilih = 7?" style="rhombus;whiteSpace=wrap;html=1;" vertex="1" parent="1">
          <mxGeometry x="380" y="1830" width="80" height="80" as="geometry" />
        </mxCell>
        <mxCell id="11tLpaPTzXhd942qfP_N-5" value="Login" style="shape=offPageConnector;whiteSpace=wrap;html=1;" vertex="1" parent="1">
          <mxGeometry x="560" y="1830" width="80" height="80" as="geometry" />
        </mxCell>
        <mxCell id="11tLpaPTzXhd942qfP_N-13" style="edgeStyle=orthogonalEdgeStyle;rounded=0;orthogonalLoop=1;jettySize=auto;html=1;entryX=1;entryY=0.5;entryDx=0;entryDy=0;" edge="1" parent="1" source="11tLpaPTzXhd942qfP_N-7" target="DjbAemPv4hYNFd6ZMYBn-2">
          <mxGeometry relative="1" as="geometry">
            <Array as="points">
              <mxPoint x="1200" y="2020" />
              <mxPoint x="1200" y="560" />
            </Array>
          </mxGeometry>
        </mxCell>
        <mxCell id="11tLpaPTzXhd942qfP_N-7" value="pilihan tidak valid" style="shape=parallelogram;perimeter=parallelogramPerimeter;whiteSpace=wrap;html=1;fixedSize=1;" vertex="1" parent="1">
          <mxGeometry x="360" y="2000" width="120" height="60" as="geometry" />
        </mxCell>
        <mxCell id="11tLpaPTzXhd942qfP_N-12" style="edgeStyle=orthogonalEdgeStyle;rounded=0;orthogonalLoop=1;jettySize=auto;html=1;entryX=0;entryY=0.5;entryDx=0;entryDy=0;" edge="1" parent="1" source="11tLpaPTzXhd942qfP_N-10" target="wQbYnaiTET5U_DJyjIvu-31">
          <mxGeometry relative="1" as="geometry" />
        </mxCell>
        <mxCell id="11tLpaPTzXhd942qfP_N-10" value="Tampilkan list donasi" style="whiteSpace=wrap;html=1;" vertex="1" parent="1">
          <mxGeometry x="520" y="1680" width="120" height="60" as="geometry" />
        </mxCell>
      </root>
    </mxGraphModel>
  </diagram>
</mxfile>
